<svg width="24" height="24" viewBox="0 0 24 24" fill="none" xmlns="http://www.w3.org/2000/svg">
<path d="M17.3 15.3C17.1167 15.4833 16.8833 15.575 16.6 15.575C16.3167 15.575 16.0833 15.4833 15.9 15.3L12 11.4L8.1 15.3C7.91667 15.4833 7.68333 15.575 7.4 15.575C7.11667 15.575 6.88333 15.4833 6.7 15.3C6.51667 15.1167 6.425 14.8833 6.425 14.6C6.425 14.3167 6.51667 14.0833 6.7 13.9L11.3 9.30001C11.4 9.20001 11.5083 9.12901 11.625 9.08701C11.7417 9.04501 11.8667 9.02435 12 9.02501C12.1333 9.02501 12.2583 9.04601 12.375 9.08801C12.4917 9.13001 12.6 9.20068 12.7 9.30001L17.3 13.9C17.4833 14.0833 17.575 14.3167 17.575 14.6C17.575 14.8833 17.4833 15.1167 17.3 15.3Z" fill="white"/>
</svg>
