<svg width="14" height="14" viewBox="0 0 14 14" fill="none" xmlns="http://www.w3.org/2000/svg">
<path d="M6.34645 13.208C6.18645 13.208 6.05045 13.16 5.93845 13.064C5.84245 12.952 5.79445 12.816 5.79445 12.656V7.664H0.874453C0.714453 7.664 0.578453 7.616 0.466453 7.52C0.370453 7.408 0.322453 7.272 0.322453 7.112V6.344C0.322453 6.184 0.370453 6.056 0.466453 5.96C0.578453 5.848 0.714453 5.792 0.874453 5.792H5.79445V0.943999C5.79445 0.783999 5.84245 0.656 5.93845 0.56C6.05045 0.447999 6.18645 0.391999 6.34645 0.391999H7.18645C7.34645 0.391999 7.47445 0.447999 7.57045 0.56C7.68245 0.656 7.73845 0.783999 7.73845 0.943999V5.792H12.6825C12.8425 5.792 12.9705 5.848 13.0665 5.96C13.1785 6.056 13.2345 6.184 13.2345 6.344V7.112C13.2345 7.272 13.1785 7.408 13.0665 7.52C12.9705 7.616 12.8425 7.664 12.6825 7.664H7.73845V12.656C7.73845 12.816 7.68245 12.952 7.57045 13.064C7.47445 13.16 7.34645 13.208 7.18645 13.208H6.34645Z" fill="white"/>
</svg>
