<svg width="53" height="52" viewBox="0 0 53 52" fill="none" xmlns="http://www.w3.org/2000/svg">
<path d="M30.8999 33.0666C31.1444 32.8222 31.2666 32.5111 31.2666 32.1333C31.2666 31.7555 31.1444 31.4444 30.8999 31.2L25.6999 26L30.8999 20.8C31.1444 20.5555 31.2666 20.2444 31.2666 19.8667C31.2666 19.4889 31.1444 19.1778 30.8999 18.9333C30.6555 18.6889 30.3444 18.5667 29.9666 18.5667C29.5888 18.5667 29.2777 18.6889 29.0333 18.9333L22.8999 25.0667C22.7666 25.2 22.6719 25.3444 22.6159 25.5C22.5599 25.6555 22.5324 25.8222 22.5333 26C22.5333 26.1778 22.5613 26.3444 22.6173 26.5C22.6733 26.6555 22.7675 26.8 22.8999 26.9333L29.0333 33.0666C29.2777 33.3111 29.5888 33.4333 29.9666 33.4333C30.3444 33.4333 30.6555 33.3111 30.8999 33.0666Z" fill="white"/>
<rect x="1" y="0.5" width="51" height="51" rx="25.5" stroke="white"/>
</svg>
