<svg width="52" height="52" viewBox="0 0 52 52" fill="none" xmlns="http://www.w3.org/2000/svg">
<rect width="52" height="52" rx="26" fill="white"/>
<path d="M29.6001 18.9336C29.8446 19.178 29.9668 19.4891 29.9668 19.8669C29.9668 20.2447 29.8446 20.5558 29.6001 20.8003L24.4001 26.0003L29.6001 31.2003C29.8446 31.4447 29.9668 31.7558 29.9668 32.1336C29.9668 32.5114 29.8446 32.8225 29.6001 33.0669C29.3557 33.3114 29.0446 33.4336 28.6668 33.4336C28.289 33.4336 27.9779 33.3114 27.7335 33.0669L21.6001 26.9336C21.4668 26.8003 21.3721 26.6558 21.3161 26.5003C21.2601 26.3447 21.2326 26.178 21.2335 26.0003C21.2335 25.8225 21.2615 25.6558 21.3175 25.5003C21.3735 25.3447 21.4677 25.2003 21.6001 25.0669L27.7335 18.9336C27.9779 18.6892 28.289 18.5669 28.6668 18.5669C29.0446 18.5669 29.3557 18.6892 29.6001 18.9336Z" fill="black"/>
</svg>
