<svg width="52" height="52" viewBox="0 0 52 52" fill="none" xmlns="http://www.w3.org/2000/svg">
<rect width="52" height="52" rx="26" fill="white"/>
<path d="M21.6 33.0666C21.3556 32.8222 21.2333 32.5111 21.2333 32.1333C21.2333 31.7555 21.3556 31.4444 21.6 31.2L26.8 26L21.6 20.8C21.3556 20.5555 21.2333 20.2444 21.2333 19.8667C21.2333 19.4889 21.3556 19.1778 21.6 18.9333C21.8444 18.6889 22.1556 18.5667 22.5333 18.5667C22.9111 18.5667 23.2222 18.6889 23.4667 18.9333L29.6 25.0667C29.7333 25.2 29.828 25.3444 29.884 25.5C29.94 25.6555 29.9676 25.8222 29.9667 26C29.9667 26.1778 29.9387 26.3444 29.8827 26.5C29.8267 26.6555 29.7324 26.8 29.6 26.9333L23.4667 33.0666C23.2222 33.3111 22.9111 33.4333 22.5333 33.4333C22.1556 33.4333 21.8444 33.3111 21.6 33.0666Z" fill="black"/>
</svg>
