<svg width="52" height="52" viewBox="0 0 52 52" fill="none" xmlns="http://www.w3.org/2000/svg">
<path d="M22.4 18.9336C22.1555 19.178 22.0333 19.4891 22.0333 19.8669C22.0333 20.2447 22.1555 20.5558 22.4 20.8003L27.6 26.0003L22.4 31.2003C22.1555 31.4447 22.0333 31.7558 22.0333 32.1336C22.0333 32.5114 22.1555 32.8225 22.4 33.0669C22.6444 33.3114 22.9555 33.4336 23.3333 33.4336C23.7111 33.4336 24.0222 33.3114 24.2667 33.0669L30.4 26.9336C30.5333 26.8003 30.628 26.6558 30.684 26.5003C30.74 26.3447 30.7675 26.178 30.7667 26.0003C30.7667 25.8225 30.7387 25.6558 30.6827 25.5003C30.6267 25.3447 30.5324 25.2003 30.4 25.0669L24.2667 18.9336C24.0222 18.6892 23.7111 18.5669 23.3333 18.5669C22.9555 18.5669 22.6444 18.6892 22.4 18.9336Z" fill="white"/>
<rect x="0.5" y="0.5" width="51" height="51" rx="25.5" stroke="white"/>
</svg>
